<svg xmlns="http://www.w3.org/2000/svg" viewBox="0 0 96 120"><defs><style>.cls-1{fill:#f2a900;}.cls-2{fill:#fff;}</style></defs><g id="Layer_2" data-name="Layer 2"><g id="Graphics"><path class="cls-1" d="M22.86,107.74a.68.68,0,0,0-.75-.75H19a.67.67,0,0,0-.75.75v1.49c0,.48.26.64.75.75l4.08.88c1.72.37,3.17,1.4,3.17,3.16v2.86A3,3,0,0,1,23.08,120H18.15A3,3,0,0,1,15,116.88v-2h3.08v1.4a.67.67,0,0,0,.75.75h3.43a.67.67,0,0,0,.74-.75v-1.67c0-.48-.26-.63-.74-.74L18.2,113c-1.72-.38-3.17-1.41-3.17-3.17v-2.68A3,3,0,0,1,18.15,104h4.66a3,3,0,0,1,3.12,3.12V109H22.86Z"/><path class="cls-1" d="M36.85,104.09A3,3,0,0,1,40,107.21v4a3,3,0,0,1-3.12,3.12H31.92v5.58H28.76V104.09Zm-.79,7.25a.67.67,0,0,0,.74-.75v-2.77a.67.67,0,0,0-.74-.74H31.92v4.26Z"/><path class="cls-1" d="M50.49,104a3,3,0,0,1,3.12,3.12v9.76A3,3,0,0,1,50.49,120h-5.3a3,3,0,0,1-3.12-3.12v-9.76A3,3,0,0,1,45.19,104Zm-.05,3.74a.67.67,0,0,0-.74-.75H46a.68.68,0,0,0-.75.75v8.52A.68.68,0,0,0,46,117H49.7a.67.67,0,0,0,.74-.75Z"/><path class="cls-1" d="M64.57,119.91,62,114H59.47v5.87H56.31V104.09h8.06a3,3,0,0,1,3.12,3.12v3.71a2.93,2.93,0,0,1-2.15,3l2.64,6Zm-.24-12.09a.67.67,0,0,0-.75-.74H59.47v4h4.11a.68.68,0,0,0,.75-.75Z"/><polygon class="cls-1" points="76.83 107.03 76.83 119.91 73.67 119.91 73.67 107.03 69.54 107.03 69.54 104.09 80.97 104.09 80.97 107.03 76.83 107.03"/><path d="M48,0A48,48,0,1,0,96,48,48,48,0,0,0,48,0"/><path class="cls-1" d="M94.45,48a46.45,46.45,0,0,1-92.9,0h18a28.38,28.38,0,0,0,5.1,16.26L48.5,40.38,26.72,36.13H65.78L39.2,54.68l13.37,4L48.92,51l5.71-4,3.29,17.45L39.16,54.7l-14.26,10A28.48,28.48,0,0,0,76.48,48Z"/><path class="cls-1" d="M69.37,33.57H55.31l7-7a25.7,25.7,0,0,1,7.05,7"/><rect class="cls-2" x="10.18" y="34.31" width="2.45" height="12.24" transform="translate(-30.49 43.44) rotate(-78.36)"/><polygon class="cls-2" points="12.51 22.43 23.15 28.47 21.84 30.76 12.37 30.56 19.62 34.68 18.49 36.67 7.85 30.63 9.15 28.34 18.63 28.54 11.38 24.42 12.51 22.43"/><polygon class="cls-2" points="18.09 16.24 24.35 11.25 25.79 13.05 21.44 16.52 23.07 18.56 26.59 15.76 28.04 17.56 24.51 20.37 27.63 24.28 25.72 25.8 18.09 16.24"/><path class="cls-2" d="M36.57,5.92a2.29,2.29,0,0,1,3,1.55l2.33,7.18a2.3,2.3,0,0,1-1.56,3L36.48,19a2.3,2.3,0,0,1-3-1.56l-2.32-7.17a2.3,2.3,0,0,1,1.55-3Zm.85,2.76a.51.51,0,0,0-.72-.37L34,9.19a.52.52,0,0,0-.37.73l2,6.27a.52.52,0,0,0,.73.37l2.73-.88a.52.52,0,0,0,.37-.73Z"/><path class="cls-2" d="M52.41,17l-1.64-4.67-2-.14-.32,4.53L46,16.53l.87-12.2,6.22.44a2.3,2.3,0,0,1,2.23,2.58l-.2,2.87a2.27,2.27,0,0,1-1.83,2.18L55,17.17Zm.48-9.34A.51.51,0,0,0,52.35,7l-3.16-.23L49,9.91l3.17.23a.53.53,0,0,0,.62-.54Z"/><polygon class="cls-2" points="68.18 23.43 66.15 22.31 70.08 15.16 64.77 19.32 63.22 18.47 63.89 11.76 59.96 18.91 57.93 17.79 63.83 7.07 66.18 8.36 65.5 16.17 71.72 11.41 74.07 12.7 68.18 23.43"/><polygon class="cls-2" points="85.21 25.09 83.37 26.49 80.01 22.07 78 23.59 80.73 27.18 78.89 28.57 76.16 24.99 73.94 26.68 77.31 31.1 75.47 32.5 70.62 26.13 80.37 18.72 85.21 25.09"/><path class="cls-2" d="M90.41,38.13a2.3,2.3,0,0,1-1.66,3l-7.12,2a2.31,2.31,0,0,1-3-1.66L76.9,35.35,88.66,32ZM80.7,40.26a.52.52,0,0,0,.71.4l6.21-1.77a.53.53,0,0,0,.4-.72L87.11,35l-7.32,2.08Z"/><polygon points="15.94 61.15 11.68 61.69 15.38 59.41 15.05 58.39 10.72 58.69 14.49 56.65 14.05 55.26 8.57 58.66 8.97 59.91 12.89 59.65 9.55 61.72 9.94 62.92 16.37 62.48 15.94 61.15"/><polygon points="16.37 64.97 17.71 67.4 18.84 66.78 16.85 63.15 11.37 66.16 13.36 69.79 14.49 69.17 13.15 66.73 14.26 66.13 15.34 68.1 16.47 67.48 15.39 65.51 16.37 64.97"/><polygon points="23.34 74.25 24.28 73.38 21.23 70.09 21.18 70.04 20.25 70.91 21.34 72.08 17.73 75.42 17.68 75.47 18.61 76.46 22.26 73.08 23.34 74.25"/><polygon points="25.4 75.99 27.58 77.72 28.38 76.7 25.13 74.14 21.25 79.04 24.5 81.61 25.3 80.59 23.12 78.87 23.9 77.89 25.67 79.28 26.47 78.27 24.7 76.87 25.4 75.99"/><path d="M32,78.79l-1.57-.88a1.23,1.23,0,0,0-1.74.5l-.5.9a1.38,1.38,0,0,0,.49,1.75l1.21,1.07c.14.12.16.19.1.31l-.32.56a.25.25,0,0,1-.13.12.24.24,0,0,1-.17,0l-1.16-.64a.22.22,0,0,1-.11-.13.18.18,0,0,1,0-.17l.3-.54L27.27,81l-.41.74a1.21,1.21,0,0,0,.49,1.73l1.66.93a1.34,1.34,0,0,0,.66.18,1.06,1.06,0,0,0,.31,0,1.24,1.24,0,0,0,.76-.63l.54-1a1.39,1.39,0,0,0-.48-1.75l-1.22-1.07c-.14-.13-.16-.19-.1-.31l.29-.5a.18.18,0,0,1,.12-.12.21.21,0,0,1,.18,0l1.06.6a.2.2,0,0,1,.09.3l-.27.47,1.16.65.38-.68A1.22,1.22,0,0,0,32,78.79"/><polygon points="33.62 81.09 35.12 81.64 33.41 86.32 34.69 86.79 36.4 82.11 37.9 82.66 38.34 81.46 34.06 79.9 33.62 81.09"/><path d="M43.29,84.46,42,84.28a.39.39,0,0,0-.44.33l-.18,1.24a.37.37,0,0,0,.07.29.38.38,0,0,0,.26.16l1.24.18h.06a.38.38,0,0,0,.38-.33l.19-1.25a.39.39,0,0,0-.33-.44"/><polygon points="50.18 85.2 48.92 82.76 47.43 82.84 49.59 86.81 49.71 88.98 51.07 88.9 50.95 86.73 52.59 82.64 52.63 82.54 51.14 82.63 50.18 85.2"/><path d="M58.1,82.62a1.22,1.22,0,0,0-1.53-1l-2,.45a1.22,1.22,0,0,0-1,1.52l.83,3.68a1.27,1.27,0,0,0,.54.82,1.23,1.23,0,0,0,.66.18l.32,0,2-.45a1.22,1.22,0,0,0,1-1.52Zm-.72,4L56,87a.23.23,0,0,1-.17,0,.24.24,0,0,1-.09-.15L55,83.57c0-.15,0-.24.17-.27l1.4-.31h.07l.1,0a.27.27,0,0,1,.09.15l.72,3.22a.18.18,0,0,1-.16.26"/><path d="M63.12,79.42l0-.06-1.26.51,1.8,4.43a.18.18,0,0,1-.12.28l-1.24.51a.23.23,0,0,1-.18,0A.25.25,0,0,1,62,85l-1.78-4.36,0-.06-1.25.51,1.89,4.65a1.28,1.28,0,0,0,.68.71,1.13,1.13,0,0,0,.45.09,1.23,1.23,0,0,0,.53-.11l1.81-.73A1.23,1.23,0,0,0,65,84Z"/><polygon points="71.11 75.64 70.35 74.61 66.75 77.29 66.69 77.33 67.45 78.36 68.73 77.4 71.67 81.34 71.71 81.4 72.8 80.59 69.83 76.59 71.11 75.64"/><path d="M76.22,72.58l-1-1a1.22,1.22,0,0,0-1.81,0l-2.22,2.29,4.48,4.36.95-1L75,75.69l.61-.63,2.27.87h0l1-1-2.4-.9a1.21,1.21,0,0,0-.3-1.41m-1.1,1.13L74.06,74.8l-1-1,1.06-1.09a.2.2,0,0,1,.32,0l.7.68a.2.2,0,0,1,0,.31"/><path d="M81.71,69l-4.06-2.82-.06,0-.78,1.12,3.93,2.72a.25.25,0,0,1,.1.14.24.24,0,0,1,0,.17L80,71.34a.19.19,0,0,1-.3.06l-3.87-2.69,0,0L75,69.79l4.12,2.86a1.35,1.35,0,0,0,.75.25l.2,0a1.29,1.29,0,0,0,.82-.55L82,70.73a1.31,1.31,0,0,0,.23-1,1.33,1.33,0,0,0-.55-.82"/><path d="M84.61,63.22l-1-.48a1.39,1.39,0,0,0-1.71.6l-1,1.28c-.12.15-.19.18-.31.12l-.52-.25a.18.18,0,0,1-.12-.12.21.21,0,0,1,0-.17l.52-1.11a.23.23,0,0,1,.12-.12.24.24,0,0,1,.18,0l.49.23L81.87,62l-.71-.34a1.25,1.25,0,0,0-1-.07,1.27,1.27,0,0,0-.72.67l-.77,1.63a1.25,1.25,0,0,0-.07,1,1.27,1.27,0,0,0,.67.72l.94.44a1.39,1.39,0,0,0,1.71-.6l1-1.28c.12-.15.18-.17.3-.11l.58.27a.2.2,0,0,1,.11.3l-.57,1.19a.2.2,0,0,1-.3.11l-.55-.26-.57,1.19.77.37a1.45,1.45,0,0,0,.59.14,1.23,1.23,0,0,0,1.11-.75l.82-1.71a1.22,1.22,0,0,0-.61-1.7"/><polygon points="82.48 57.69 82.93 56.16 81.7 55.8 80.44 60.11 80.43 60.17 81.65 60.53 82.1 59 86.81 60.38 86.88 60.4 87.26 59.09 82.48 57.69"/></g></g></svg>